<?xml version="1.0" encoding="utf-8"?>
<!-- Generator: Adobe Illustrator 24.3.0, SVG Export Plug-In . SVG Version: 6.00 Build 0)  -->
<svg version="1.1"
	 id="Livello_1" text-rendering="geometricPrecision" shape-rendering="geometricPrecision" image-rendering="optimizeQuality"
	 xmlns="http://www.w3.org/2000/svg" xmlns:xlink="http://www.w3.org/1999/xlink" x="0px" y="0px" viewBox="0 0 85 85"
	 style="enable-background:new 0 0 85 85;" xml:space="preserve">
<style type="text/css">
	.st0{fill:#FFFFFF;}
	.st1{fill:none;stroke:#0FAFFF;stroke-width:3.676;stroke-linejoin:round;stroke-miterlimit:10;}
	.st2{fill:none;stroke:#0FAFFF;stroke-width:2.2481;stroke-linecap:round;stroke-linejoin:round;stroke-miterlimit:3;}
	.st3{fill:#DDEFFF;stroke:#0FAFFF;stroke-width:2.2481;stroke-linecap:round;stroke-linejoin:round;stroke-miterlimit:3;}
	.st4{fill:#0FAFFF;}
	.st5{fill:#FFFFFF;stroke:#0FAFFF;stroke-width:2.2481;stroke-linecap:round;stroke-linejoin:round;stroke-miterlimit:3;}
</style>
<desc>document_information icon from the IconExperience.com O-Collection. Copyright by INCORS GmbH (www.incors.com).</desc>
<desc>document_information icon from the IconExperience.com O-Collection. Copyright by INCORS GmbH (www.incors.com).</desc>
<desc>document_information icon from the IconExperience.com O-Collection. Copyright by INCORS GmbH (www.incors.com).</desc>
<desc>document_information icon from the IconExperience.com O-Collection. Copyright by INCORS GmbH (www.incors.com).</desc>
<path id="SFONDO" class="st0" d="M17.2,2.1h50.7c8.3,0,15.1,6.8,15.1,15.1v50.7c0,8.3-6.8,15.1-15.1,15.1H17.2
	c-8.3,0-15.1-6.8-15.1-15.1V17.2C2.1,8.9,8.9,2.1,17.2,2.1z"/>
<path id="CONTORNO" class="st1" d="M17.2,2.1h50.7c8.3,0,15.1,6.8,15.1,15.1v50.7c0,8.3-6.8,15.1-15.1,15.1H17.2
	c-8.3,0-15.1-6.8-15.1-15.1V17.2C2.1,8.9,8.9,2.1,17.2,2.1z"/>
<g id="TRENDS">
	<polyline class="st2" points="66.2,57.7 20.8,57.7 20.8,28 	"/>
	<polygon class="st3" points="68,57.8 61.5,61.5 61.6,54 	"/>
	<polygon class="st3" points="24.5,30 17,30.1 20.7,23.6 	"/>
	<polyline class="st2" points="27.9,52.3 38.2,37.8 47.2,45.1 58.7,36.8 	"/>
	<circle class="st4" cx="27.9" cy="52.3" r="2.1"/>
	<circle class="st4" cx="38.3" cy="37.9" r="2.1"/>
	<circle class="st4" cx="47.2" cy="45" r="2.1"/>
	<circle class="st5" cx="58.7" cy="36.8" r="2.8"/>
</g>
</svg>
