<?xml version="1.0" encoding="utf-8"?>
<!-- Generator: Adobe Illustrator 24.3.0, SVG Export Plug-In . SVG Version: 6.00 Build 0)  -->
<svg version="1.1"
	 id="Livello_1" shape-rendering="geometricPrecision" image-rendering="optimizeQuality" text-rendering="geometricPrecision"
	 xmlns="http://www.w3.org/2000/svg" xmlns:xlink="http://www.w3.org/1999/xlink" x="0px" y="0px" viewBox="0 0 85 85"
	 style="enable-background:new 0 0 85 85;" xml:space="preserve">
<style type="text/css">
	.st0{fill:#FFFFFF;}
	.st1{fill:none;stroke:#0FAFFF;stroke-width:3.676;stroke-linejoin:round;stroke-miterlimit:10;}
	.st2{fill:none;stroke:#0FAFFF;stroke-width:2.8346;stroke-linejoin:round;stroke-miterlimit:10;}
	.st3{fill:#0FAFFF;}
	.st4{fill:#DDEFFF;stroke:#0FAFFF;stroke-width:2.8346;stroke-linejoin:round;stroke-miterlimit:10;}
	.st5{fill:#DDEFFF;}
</style>
<desc>document_information icon from the IconExperience.com O-Collection. Copyright by INCORS GmbH (www.incors.com).</desc>
<desc>document_information icon from the IconExperience.com O-Collection. Copyright by INCORS GmbH (www.incors.com).</desc>
<desc>document_information icon from the IconExperience.com O-Collection. Copyright by INCORS GmbH (www.incors.com).</desc>
<desc>document_information icon from the IconExperience.com O-Collection. Copyright by INCORS GmbH (www.incors.com).</desc>
<path id="SFONDO" class="st0" d="M17.2,2.1h50.7c8.3,0,15.1,6.8,15.1,15.1v50.7c0,8.3-6.8,15.1-15.1,15.1H17.2
	c-8.3,0-15.1-6.8-15.1-15.1V17.2C2.1,8.9,8.9,2.1,17.2,2.1z"/>
<path id="CONTORNO" class="st1" d="M17.2,2.1h50.7c8.3,0,15.1,6.8,15.1,15.1v50.7c0,8.3-6.8,15.1-15.1,15.1H17.2
	c-8.3,0-15.1-6.8-15.1-15.1V17.2C2.1,8.9,8.9,2.1,17.2,2.1z"/>
<g id="USERS_and_groups">
	<g>
		<path class="st2" d="M61,34.1c0,3.7-3,6.6-6.6,6.6c-3.7,0-6.6-3-6.6-6.6s3-6.6,6.6-6.6C58.1,27.5,61,30.5,61,34.1"/>
		<g>
			<path class="st3" d="M54.4,42.2c4.1,0,7.9,3.1,9.8,8H44.5C46.5,45.4,50.3,42.2,54.4,42.2 M54.4,39.4c-6.6,0-12.1,5.8-13.6,13.6
				H68C66.4,45.2,60.9,39.4,54.4,39.4L54.4,39.4z"/>
		</g>
	</g>
	<g>
		<path class="st2" d="M37.3,29.3c0,3.7-3,6.6-6.6,6.6c-3.7,0-6.6-3-6.6-6.6s3-6.6,6.6-6.6C34.3,22.6,37.3,25.6,37.3,29.3"/>
		<g>
			<path class="st3" d="M30.6,37.4c4.1,0,7.9,3.1,9.8,8H20.8C22.8,40.5,26.5,37.4,30.6,37.4 M30.6,34.5c-6.6,0-12.1,5.8-13.6,13.6
				h27.3C42.7,40.3,37.2,34.5,30.6,34.5L30.6,34.5z"/>
		</g>
	</g>
	<g>
		<path class="st4" d="M48.2,45.1c0,3.7-3,6.6-6.6,6.6c-3.7,0-6.6-3-6.6-6.6s3-6.6,6.6-6.6C45.2,38.5,48.2,41.4,48.2,45.1"/>
		<g>
			<path class="st5" d="M29.7,62.6c1.9-6.4,6.6-10.8,11.8-10.8c5.3,0,10,4.4,11.8,10.8H29.7z"/>
			<path class="st3" d="M41.5,53.2c4.1,0,7.9,3.1,9.8,8H31.7C33.6,56.4,37.4,53.2,41.5,53.2 M41.5,50.4c-6.6,0-12.1,5.8-13.6,13.6
				h27.3C53.6,56.2,48.1,50.4,41.5,50.4L41.5,50.4z"/>
		</g>
	</g>
</g>
</svg>
