<?xml version="1.0" encoding="utf-8"?>
<!-- Generator: Adobe Illustrator 24.3.0, SVG Export Plug-In . SVG Version: 6.00 Build 0)  -->
<svg version="1.1"
	 id="Livello_1" text-rendering="geometricPrecision" shape-rendering="geometricPrecision" image-rendering="optimizeQuality"
	 xmlns="http://www.w3.org/2000/svg" xmlns:xlink="http://www.w3.org/1999/xlink" x="0px" y="0px" viewBox="0 0 85 85"
	 style="enable-background:new 0 0 85 85;" xml:space="preserve">
<style type="text/css">
	.st0{fill:#FFFFFF;}
	.st1{fill:none;stroke:#0FAFFF;stroke-width:3.676;stroke-linejoin:round;stroke-miterlimit:10;}
	.st2{fill:none;stroke:#0FAFFF;stroke-width:1.7989;stroke-linecap:round;stroke-linejoin:round;stroke-miterlimit:3;}
	.st3{fill:#0FAFFF;}
	.st4{fill:#5D91CD;}
	.st5{fill:#FFFFFF;stroke:#0FAFFF;stroke-width:1.7989;stroke-linecap:round;stroke-linejoin:round;stroke-miterlimit:3;}
	.st6{fill:#DDEFFF;stroke:#0FAFFF;stroke-width:1.7989;stroke-linecap:round;stroke-linejoin:round;stroke-miterlimit:3;}
	
		.st7{fill-rule:evenodd;clip-rule:evenodd;fill:#FFFFFF;stroke:#0FAFFF;stroke-width:1.7989;stroke-linecap:round;stroke-linejoin:round;stroke-miterlimit:3;}
</style>
<desc>document_information icon from the IconExperience.com O-Collection. Copyright by INCORS GmbH (www.incors.com).</desc>
<desc>document_information icon from the IconExperience.com O-Collection. Copyright by INCORS GmbH (www.incors.com).</desc>
<desc>document_information icon from the IconExperience.com O-Collection. Copyright by INCORS GmbH (www.incors.com).</desc>
<desc>document_information icon from the IconExperience.com O-Collection. Copyright by INCORS GmbH (www.incors.com).</desc>
<path id="SFONDO" class="st0" d="M17.2,2.1h50.7c8.3,0,15.1,6.8,15.1,15.1v50.7c0,8.3-6.8,15.1-15.1,15.1H17.2
	c-8.3,0-15.1-6.8-15.1-15.1V17.2C2.1,8.9,8.9,2.1,17.2,2.1z"/>
<path id="CONTORNO" class="st1" d="M17.2,2.1h50.7c8.3,0,15.1,6.8,15.1,15.1v50.7c0,8.3-6.8,15.1-15.1,15.1H17.2
	c-8.3,0-15.1-6.8-15.1-15.1V17.2C2.1,8.9,8.9,2.1,17.2,2.1z"/>
<g id="RITENTIVITA">
	<g id="Contenuto:_SAFE">
		<rect x="17.2" y="18" class="st2" width="36.4" height="36.4"/>
		<path class="st3" d="M23.8,60.1h-2.1c-1,0-1.8-0.8-1.8-1.8v-3.9h5.7v3.9C25.6,59.3,24.8,60.1,23.8,60.1z"/>
		<path class="st4" d="M49.1,60.1H47c-1,0-1.8-0.8-1.8-1.8v-3.9h5.7v3.9C50.9,59.3,50.1,60.1,49.1,60.1z"/>
		<rect x="20.9" y="21.7" class="st5" width="28.9" height="28.9"/>
		<circle class="st6" cx="35.4" cy="36.2" r="6.2"/>
		<circle class="st3" cx="35.4" cy="36.2" r="2.6"/>
		<line class="st2" x1="35.4" y1="29.1" x2="35.4" y2="31.2"/>
		<line class="st2" x1="35.4" y1="41.2" x2="35.4" y2="43.3"/>
		<line class="st2" x1="30.3" y1="31.1" x2="31.7" y2="32.5"/>
		<line class="st2" x1="39" y1="39.8" x2="40.5" y2="41.3"/>
		<line class="st2" x1="28.3" y1="36.2" x2="30.3" y2="36.2"/>
		<line class="st2" x1="40.4" y1="36.2" x2="42.4" y2="36.2"/>
		<line class="st2" x1="40.5" y1="31.1" x2="39" y2="32.5"/>
		<line class="st2" x1="31.7" y1="39.8" x2="30.3" y2="41.3"/>
		<line class="st2" x1="19.9" y1="25.9" x2="19.9" y2="29.2"/>
		<line class="st2" x1="19.9" y1="43.2" x2="19.9" y2="46.5"/>
	</g>
	<g id="CONTENUTO_3_">
		<path class="st7" d="M56.3,54.3c6.5,0,11.8-2.3,11.8-5.1c0-2.8-5.3-5.1-11.8-5.1s-11.8,2.3-11.8,5.1C44.5,52,49.8,54.3,56.3,54.3"
			/>
		<path class="st6" d="M44.5,62c0.1,2.8,5.3,5,11.8,5C62.8,67,68,64.7,68,62l0-3.9c-0.4,2.6-5.5,4.7-11.7,4.7
			c-6.5,0-11.8-2.3-11.8-5.1c0,0,0,0,0,0V62z"/>
		<path class="st6" d="M68,53.8c-0.4,2.6-5.5,4.7-11.7,4.7c-6.5,0-11.8-2.3-11.8-5.1c0,0,0,0,0,0v4.3c0.1,2.8,5.3,5,11.8,5
			c6.5,0,11.8-2.3,11.8-5.1L68,53.8z"/>
		<path class="st6" d="M68,49.7c-0.4,2.6-5.5,4.7-11.7,4.7c-6.5,0-11.8-2.3-11.8-5.1c0,0,0,0,0,0v4.3c0.1,2.8,5.3,5,11.8,5
			c6.5,0,11.8-2.3,11.8-5.1L68,49.7z"/>
	</g>
</g>
</svg>
