<?xml version="1.0" encoding="utf-8"?>
<!-- Generator: Adobe Illustrator 24.3.0, SVG Export Plug-In . SVG Version: 6.00 Build 0)  -->
<svg version="1.1"
	 id="Livello_1" shape-rendering="geometricPrecision" image-rendering="optimizeQuality" text-rendering="geometricPrecision"
	 xmlns="http://www.w3.org/2000/svg" xmlns:xlink="http://www.w3.org/1999/xlink" x="0px" y="0px" viewBox="0 0 85 85"
	 style="enable-background:new 0 0 85 85;" xml:space="preserve">
<style type="text/css">
	.st0{fill:#FFFFFF;}
	.st1{fill:none;stroke:#0FAFFF;stroke-width:3.676;stroke-linejoin:round;stroke-miterlimit:10;}
	.st2{fill:none;stroke:#0FAFFF;stroke-width:0.9921;stroke-linecap:round;stroke-linejoin:round;}
	.st3{fill:none;stroke:#0FAFFF;stroke-width:0.9921;stroke-linecap:round;stroke-linejoin:round;stroke-dasharray:0.5716,1.4291;}
	.st4{fill:none;stroke:#0FAFFF;stroke-width:0.9921;stroke-linecap:round;stroke-linejoin:round;stroke-dasharray:0.6028,1.5069;}
	.st5{fill:#0FAFFF;stroke:#0FAFFF;stroke-width:1.2778;stroke-linejoin:round;stroke-miterlimit:3;}
	.st6{fill:#DDEFFF;}
	.st7{fill:#0FAFFF;}
	.st8{fill:#DDEFFF;stroke:#0FAFFF;stroke-width:1.2778;stroke-linejoin:round;stroke-miterlimit:3;}
	.st9{fill:#FFFFFF;stroke:#0FAFFF;stroke-width:1.2778;stroke-linejoin:round;stroke-miterlimit:3;}
	.st10{fill:#FFFFFF;stroke:#5D91CD;stroke-width:1.614;stroke-linecap:round;stroke-linejoin:round;stroke-miterlimit:3;}
	.st11{fill:#5D91CD;}
	.st12{fill:#DDEFFF;stroke:#5D91CD;stroke-width:1.614;stroke-linecap:round;stroke-linejoin:round;stroke-miterlimit:3;}
</style>
<desc>document_information icon from the IconExperience.com O-Collection. Copyright by INCORS GmbH (www.incors.com).</desc>
<desc>document_information icon from the IconExperience.com O-Collection. Copyright by INCORS GmbH (www.incors.com).</desc>
<desc>document_information icon from the IconExperience.com O-Collection. Copyright by INCORS GmbH (www.incors.com).</desc>
<desc>document_information icon from the IconExperience.com O-Collection. Copyright by INCORS GmbH (www.incors.com).</desc>
<path id="SFONDO" class="st0" d="M17.2,2.1h50.7c8.3,0,15.1,6.8,15.1,15.1v50.7c0,8.3-6.8,15.1-15.1,15.1H17.2
	c-8.3,0-15.1-6.8-15.1-15.1V17.2C2.1,8.9,8.9,2.1,17.2,2.1z"/>
<path id="CONTORNO" class="st1" d="M17.2,2.1h50.7c8.3,0,15.1,6.8,15.1,15.1v50.7c0,8.3-6.8,15.1-15.1,15.1H17.2
	c-8.3,0-15.1-6.8-15.1-15.1V17.2C2.1,8.9,8.9,2.1,17.2,2.1z"/>
<g id="Variables_at_DESIGN">
	<g>
		<g>
			<line class="st2" x1="61.8" y1="58.4" x2="61.5" y2="58.4"/>
			<line class="st3" x1="60.1" y1="58.4" x2="34.8" y2="58.4"/>
			<polyline class="st2" points="34.1,58.4 33.8,58.4 33.8,58.1 			"/>
			<line class="st4" x1="33.8" y1="56.6" x2="33.8" y2="48.9"/>
			<line class="st2" x1="33.8" y1="48.1" x2="33.8" y2="47.8"/>
		</g>
	</g>
	<polygon class="st5" points="32.2,48.9 35.5,49 33.9,46.2 	"/>
	<g>
		<rect x="50.7" y="51.8" class="st0" width="8.8" height="14.8"/>
		<path class="st6" d="M67,67.2h-7.1c-0.2,0-0.3-0.3-0.3-0.7V51.8c0-0.4,0.2-0.7,0.3-0.7H67c0.2,0,0.3,0.3,0.3,0.7v14.8
			C67.4,66.9,67.2,67.2,67,67.2"/>
		<path class="st7" d="M65.1,67.9H52.3c-1.6,0-2.9-1.1-2.9-2.5V52.8c0-1.4,1.3-2.5,2.9-2.5h12.7c1.6,0,2.9,1.1,2.9,2.5v12.6
			C68,66.8,66.7,67.9,65.1,67.9 M52.3,51.7c-0.9,0-1.6,0.5-1.6,1.1v12.6c0,0.6,0.7,1.1,1.6,1.1h12.7c0.9,0,1.6-0.5,1.6-1.1V52.8
			c0-0.6-0.7-1.1-1.6-1.1H52.3z"/>
		<path class="st0" d="M62.2,60.5h-1c-0.2,0-0.4-0.2-0.4-0.4v-1c0-0.2,0.2-0.4,0.4-0.4h1c0.2,0,0.4,0.2,0.4,0.4v1
			C62.6,60.3,62.4,60.5,62.2,60.5"/>
		<path class="st0" d="M64.7,60.5h-1c-0.2,0-0.4-0.2-0.4-0.4v-1c0-0.2,0.2-0.4,0.4-0.4h1c0.2,0,0.4,0.2,0.4,0.4v1
			C65.1,60.3,65,60.5,64.7,60.5"/>
		<path class="st0" d="M62.2,63h-1c-0.2,0-0.4-0.2-0.4-0.4v-1c0-0.2,0.2-0.4,0.4-0.4h1c0.2,0,0.4,0.2,0.4,0.4v1
			C62.6,62.8,62.4,63,62.2,63"/>
		<path class="st0" d="M64.7,63h-1c-0.2,0-0.4-0.2-0.4-0.4v-1c0-0.2,0.2-0.4,0.4-0.4h1c0.2,0,0.4,0.2,0.4,0.4v1
			C65.1,62.8,65,63,64.7,63"/>
		<path class="st0" d="M62.2,65.4h-1c-0.2,0-0.4-0.2-0.4-0.4v-1c0-0.2,0.2-0.4,0.4-0.4h1c0.2,0,0.4,0.2,0.4,0.4v1
			C62.6,65.2,62.4,65.4,62.2,65.4"/>
		<path class="st0" d="M64.7,58.1h-1c-0.2,0-0.4-0.2-0.4-0.4v-1c0-0.2,0.2-0.4,0.4-0.4h1c0.2,0,0.4,0.2,0.4,0.4v1
			C65.1,57.9,65,58.1,64.7,58.1"/>
		<path class="st0" d="M62.2,58.1h-1c-0.2,0-0.4-0.2-0.4-0.4v-1c0-0.2,0.2-0.4,0.4-0.4h1c0.2,0,0.4,0.2,0.4,0.4v1
			C62.6,57.9,62.4,58.1,62.2,58.1"/>
		<path class="st0" d="M64.7,65.4h-1c-0.2,0-0.4-0.2-0.4-0.4v-1c0-0.2,0.2-0.4,0.4-0.4h1c0.2,0,0.4,0.2,0.4,0.4v1
			C65.1,65.2,65,65.4,64.7,65.4"/>
		<rect x="53" y="53.2" class="st7" width="3.7" height="3.3"/>
		<rect x="53" y="57.9" class="st7" width="3.7" height="3.3"/>
	</g>
	<rect x="19.6" y="17.1" class="st8" width="44.8" height="27.9"/>
	<rect x="22.8" y="20.3" class="st9" width="38.4" height="21.4"/>
	<g>
		<polygon class="st10" points="42.2,36 38.6,32.3 36.5,38.1 		"/>
		<polygon class="st11" points="39.7,36.9 37.7,34.8 36.5,38.1 		"/>
		
			<rect x="38.2" y="26.2" transform="matrix(0.7071 -0.7071 0.7071 0.7071 -6.9571 40.7756)" class="st10" width="15.1" height="5.1"/>
		<path class="st12" d="M54.1,19.1l1.3,1.3c0.6,0.6,0.6,1.7,0,2.3l-2.5,2.5l-3.6-3.6l2.5-2.5C52.4,18.5,53.4,18.5,54.1,19.1z"/>
	</g>
</g>
</svg>
