<?xml version="1.0" encoding="utf-8"?>
<!-- Generator: Adobe Illustrator 24.3.0, SVG Export Plug-In . SVG Version: 6.00 Build 0)  -->
<svg version="1.1"
	 id="Livello_1" text-rendering="geometricPrecision" shape-rendering="geometricPrecision" image-rendering="optimizeQuality"
	 xmlns="http://www.w3.org/2000/svg" xmlns:xlink="http://www.w3.org/1999/xlink" x="0px" y="0px" viewBox="0 0 85 85"
	 style="enable-background:new 0 0 85 85;" xml:space="preserve">
<style type="text/css">
	.st0{fill:#FFFFFF;}
	.st1{fill:none;stroke:#00BCD4;stroke-width:3.676;stroke-linejoin:round;stroke-miterlimit:10;}
	.st2{fill:none;stroke:#00BCD4;stroke-width:1.6293;stroke-linecap:round;stroke-linejoin:round;stroke-miterlimit:3;}
	.st3{fill:#E2FAFE;stroke:#00BCD4;stroke-width:1.6293;stroke-linecap:round;stroke-linejoin:round;stroke-miterlimit:3;}
	.st4{fill:#32929F;stroke:#32929F;stroke-width:0.7698;stroke-linecap:round;stroke-linejoin:round;stroke-miterlimit:3;}
</style>
<desc>document_information icon from the IconExperience.com O-Collection. Copyright by INCORS GmbH (www.incors.com).</desc>
<desc>document_information icon from the IconExperience.com O-Collection. Copyright by INCORS GmbH (www.incors.com).</desc>
<desc>document_information icon from the IconExperience.com O-Collection. Copyright by INCORS GmbH (www.incors.com).</desc>
<desc>document_information icon from the IconExperience.com O-Collection. Copyright by INCORS GmbH (www.incors.com).</desc>
<path id="SFONDO" class="st0" d="M17.2,2.1h50.7c8.3,0,15.1,6.8,15.1,15.1v50.7c0,8.3-6.8,15.1-15.1,15.1H17.2
	c-8.3,0-15.1-6.8-15.1-15.1V17.2C2.1,8.9,8.9,2.1,17.2,2.1z"/>
<path id="CONTORNO" class="st1" d="M17.2,2.1h50.7c8.3,0,15.1,6.8,15.1,15.1v50.7c0,8.3-6.8,15.1-15.1,15.1H17.2
	c-8.3,0-15.1-6.8-15.1-15.1V17.2C2.1,8.9,8.9,2.1,17.2,2.1z"/>
<g id="RICETTE">
	<rect x="29.9" y="17" class="st2" width="17.1" height="16.8"/>
	<rect x="46.2" y="38.7" class="st2" width="7.6" height="7.6"/>
	<rect x="46.2" y="49.6" class="st3" width="7.6" height="7.9"/>
	<rect x="46.2" y="60.4" class="st2" width="7.6" height="7.6"/>
	<line class="st2" x1="38.3" y1="42.5" x2="46.2" y2="42.5"/>
	<line class="st2" x1="38.3" y1="53.7" x2="46.2" y2="53.7"/>
	<polyline class="st2" points="46.2,64.2 38.3,64.2 38.3,33.8 	"/>
	<g>
		<path class="st4" d="M49.9,56.2l-2.8-4.9l1.1-0.7l2,3.6l4.2-8.4l0.7,0L49.9,56.2z"/>
	</g>
</g>
</svg>
