<?xml version="1.0" encoding="utf-8"?>
<!-- Generator: Adobe Illustrator 24.3.0, SVG Export Plug-In . SVG Version: 6.00 Build 0)  -->
<svg version="1.1"
	 id="Livello_1" text-rendering="geometricPrecision" shape-rendering="geometricPrecision" image-rendering="optimizeQuality"
	 xmlns="http://www.w3.org/2000/svg" xmlns:xlink="http://www.w3.org/1999/xlink" x="0px" y="0px" viewBox="0 0 85 85"
	 style="enable-background:new 0 0 85 85;" xml:space="preserve">
<style type="text/css">
	.st0{fill:#FFFFFF;}
	.st1{fill:none;stroke:#00BCD4;stroke-width:3.676;stroke-linejoin:round;stroke-miterlimit:10;}
	.st2{fill:#FFFFFF;stroke:#00BCD4;stroke-width:2.1769;stroke-linecap:round;stroke-linejoin:round;stroke-miterlimit:3;}
	.st3{fill:#FFFFFF;stroke:#00BCD4;stroke-width:2.8346;stroke-linecap:round;stroke-linejoin:round;stroke-miterlimit:3;}
</style>
<desc>document_information icon from the IconExperience.com O-Collection. Copyright by INCORS GmbH (www.incors.com).</desc>
<desc>document_information icon from the IconExperience.com O-Collection. Copyright by INCORS GmbH (www.incors.com).</desc>
<desc>document_information icon from the IconExperience.com O-Collection. Copyright by INCORS GmbH (www.incors.com).</desc>
<desc>document_information icon from the IconExperience.com O-Collection. Copyright by INCORS GmbH (www.incors.com).</desc>
<path id="SFONDO" class="st0" d="M17.2,2.1h50.7c8.3,0,15.1,6.8,15.1,15.1v50.7c0,8.3-6.8,15.1-15.1,15.1H17.2
	c-8.3,0-15.1-6.8-15.1-15.1V17.2C2.1,8.9,8.9,2.1,17.2,2.1z"/>
<path id="CONTORNO" class="st1" d="M17.2,2.1h50.7c8.3,0,15.1,6.8,15.1,15.1v50.7c0,8.3-6.8,15.1-15.1,15.1H17.2
	c-8.3,0-15.1-6.8-15.1-15.1V17.2C2.1,8.9,8.9,2.1,17.2,2.1z"/>
<g id="ALARMS">
	<polygon class="st2" points="68,64.5 17,64.5 42.5,20.3 	"/>
	<line class="st3" x1="42.8" y1="58.1" x2="42.8" y2="58.9"/>
	<line class="st3" x1="42.8" y1="36.1" x2="42.8" y2="52.3"/>
</g>
</svg>
