<?xml version="1.0" encoding="utf-8"?>
<!-- Generator: Adobe Illustrator 24.3.0, SVG Export Plug-In . SVG Version: 6.00 Build 0)  -->
<svg version="1.1"
	 id="Livello_1" text-rendering="geometricPrecision" shape-rendering="geometricPrecision" image-rendering="optimizeQuality"
	 xmlns="http://www.w3.org/2000/svg" xmlns:xlink="http://www.w3.org/1999/xlink" x="0px" y="0px" viewBox="0 0 85 85"
	 style="enable-background:new 0 0 85 85;" xml:space="preserve">
<style type="text/css">
	.st0{fill:#FFFFFF;}
	.st1{fill:none;stroke:#5fa2d5;stroke-width:3.676;stroke-linejoin:round;stroke-miterlimit:10;}
	.st2{fill:none;stroke:#5fa2d5;stroke-width:1.2778;stroke-linejoin:round;stroke-miterlimit:3;}
	.st3{fill:#B1D8F5;stroke:#5fa2d5;stroke-width:1.2778;stroke-linejoin:round;stroke-miterlimit:3;}
	.st4{fill:#FFFFFF;stroke:#5fa2d5;stroke-width:1.6085;stroke-linejoin:round;stroke-miterlimit:3;}
	.st5{fill:#FFFFFF;stroke:#235d9f;stroke-width:1.2778;stroke-linejoin:round;stroke-miterlimit:3;}
	.st6{fill:none;stroke:#235d9f;stroke-width:1.2778;stroke-linecap:round;stroke-linejoin:round;stroke-miterlimit:3;}
</style>
<desc>document_information icon from the IconExperience.com O-Collection. Copyright by INCORS GmbH (www.incors.com).</desc>
<desc>document_information icon from the IconExperience.com O-Collection. Copyright by INCORS GmbH (www.incors.com).</desc>
<desc>document_information icon from the IconExperience.com O-Collection. Copyright by INCORS GmbH (www.incors.com).</desc>
<desc>document_information icon from the IconExperience.com O-Collection. Copyright by INCORS GmbH (www.incors.com).</desc>
<path id="SFONDO" class="st0" d="M17.2,2.1h50.7c8.3,0,15.1,6.8,15.1,15.1v50.7c0,8.3-6.8,15.1-15.1,15.1H17.2
	c-8.3,0-15.1-6.8-15.1-15.1V17.2C2.1,8.9,8.9,2.1,17.2,2.1z"/>
<path id="CONTORNO" class="st1" d="M17.2,2.1h50.7c8.3,0,15.1,6.8,15.1,15.1v50.7c0,8.3-6.8,15.1-15.1,15.1H17.2
	c-8.3,0-15.1-6.8-15.1-15.1V17.2C2.1,8.9,8.9,2.1,17.2,2.1z"/>
<g id="GRPH_INTERFACE">
	<rect x="17" y="17.6" class="st2" width="44.8" height="27.9"/>
	<rect x="20.2" y="20.8" class="st3" width="38.4" height="21.4"/>
	<path class="st4" d="M68,48.6c0-1.1-0.9-2-2-2s-2,0.9-2,2v-0.1c0,0,0,0.5-0.6,0.5c-0.6,0-0.7-0.4-0.7-0.4v-1.5c0-1.1-0.9-2-2-2
		s-2,0.9-2,2v0.1c0,0,0,0.5-0.6,0.5c-0.6,0-0.7-0.5-0.7-0.5l-0.1-1.5c0-1.1-0.9-2-2-2s-2,0.9-2,2v1.4c0,0,0.1,0.5-0.7,0.5
		C51.8,47.6,52,47,52,47l0-9.9c0-1.1-0.9-2-2-2s-2,0.9-2,2v16.3l0,0c0,0-2.5,1.1-2.5,4c0,2,1.9,4.6,1.9,4.6l0,0c0,0,2.6,4.8,10,4.8
		s9.2-3.8,9.6-4.9c0.5-1.1,1-1.9,1-4.9C68,54,68,48.6,68,48.6z"/>
	<path class="st5" d="M31.9,28c0,2.2-1.7,3.9-3.9,3.9c-2.2,0-3.9-1.7-3.9-3.9c0-2.2,1.8-3.9,3.9-3.9C30.2,24.1,31.9,25.9,31.9,28z"
		/>
	<path class="st5" d="M43.3,28c0,2.2-1.7,3.9-3.9,3.9c-2.2,0-3.9-1.7-3.9-3.9c0-2.2,1.8-3.9,3.9-3.9C41.5,24.1,43.3,25.9,43.3,28z"
		/>
	<path class="st5" d="M54.7,28c0,2.2-1.7,3.9-3.9,3.9c-2.2,0-3.9-1.7-3.9-3.9c0-2.2,1.8-3.9,3.9-3.9C52.9,24.1,54.7,25.9,54.7,28z"
		/>
	<line class="st6" x1="28" y1="24.1" x2="28" y2="26.6"/>
	<line class="st6" x1="51.8" y1="27.1" x2="53.5" y2="25.3"/>
	<line class="st6" x1="35.5" y1="28" x2="38" y2="28"/>
	<line class="st6" x1="24.1" y1="37.4" x2="43.3" y2="37.4"/>
	<line class="st6" x1="38.3" y1="36.1" x2="38.3" y2="38.6"/>
</g>
</svg>
