<?xml version="1.0" standalone="no"?>
<!DOCTYPE svg PUBLIC "-//W3C//DTD SVG 20010904//EN"
 "http://www.w3.org/TR/2001/REC-SVG-20010904/DTD/svg10.dtd">
<svg version="1.0" xmlns="http://www.w3.org/2000/svg"
 width="1280.000000pt" height="1280.000000pt" viewBox="0 0 1280.000000 1280.000000"
 preserveAspectRatio="xMidYMid meet">
<metadata>
Created by potrace 1.16, written by Peter Selinger 2001-2019
</metadata>
<g transform="translate(0.000000,1280.000000) scale(0.100000,-0.100000)"
fill="#000000" stroke="none">
<path d="M2433 11888 c-512 -949 -797 -1937 -864 -2987 -17 -267 -6 -861 20
-1106 133 -1253 552 -2356 1241 -3270 490 -649 1049 -1125 1724 -1469 1408
-718 3174 -867 4456 -377 174 67 355 150 490 225 l115 65 79 -77 c408 -399
822 -1024 1265 -1909 75 -150 95 -183 112 -183 37 0 200 60 301 110 330 165
601 446 625 648 5 48 3 54 -67 174 -347 589 -1105 1561 -1477 1894 -48 43
-158 146 -243 229 -521 504 -1133 953 -1885 1382 -292 167 -534 296 -1042 559
-912 471 -1196 627 -1583 872 -927 586 -1581 1249 -2089 2117 -107 182 -331
625 -316 625 2 0 18 -26 35 -57 312 -555 812 -1121 1345 -1524 533 -403 1098
-698 2222 -1160 1046 -429 1279 -531 1728 -756 826 -414 1458 -849 2074 -1425
57 -54 107 -98 111 -98 19 0 152 315 208 490 63 198 109 410 138 635 25 194
25 603 0 800 -55 437 -170 819 -362 1210 -278 566 -702 1071 -1205 1437 -439
320 -1187 650 -1996 882 -378 108 -680 180 -1468 351 -836 181 -1184 270
-1570 400 -568 191 -1012 423 -1400 731 -144 114 -436 408 -554 557 -52 64
-97 117 -101 117 -4 0 -34 -51 -67 -112z"/>
</g>
</svg>
