<?xml version="1.0" standalone="no"?>
<!DOCTYPE svg PUBLIC "-//W3C//DTD SVG 20010904//EN"
 "http://www.w3.org/TR/2001/REC-SVG-20010904/DTD/svg10.dtd">
<svg version="1.0" xmlns="http://www.w3.org/2000/svg"
 width="1280.000000pt" height="1280.000000pt" viewBox="0 0 1280.000000 1280.000000"
 preserveAspectRatio="xMidYMid meet">
<metadata>
Created by potrace 1.16, written by Peter Selinger 2001-2019
</metadata>
<g transform="translate(0.000000,1280.000000) scale(0.100000,-0.100000)"
fill="#000000" stroke="none">
<path d="M10190 11884 c-109 -132 -355 -385 -481 -494 -293 -254 -710 -497
-1154 -673 -430 -170 -824 -282 -1585 -451 -162 -36 -469 -103 -681 -150 -665
-148 -1081 -257 -1468 -386 -723 -242 -1317 -531 -1701 -829 -719 -557 -1241
-1382 -1424 -2247 -49 -235 -67 -387 -73 -639 -10 -438 37 -775 163 -1160 55
-169 173 -444 196 -459 13 -8 32 5 103 70 657 600 1196 977 1995 1392 382 198
697 339 1545 690 893 370 1191 502 1550 686 610 314 1058 631 1467 1040 289
288 553 615 734 910 32 52 60 93 62 91 6 -6 -216 -423 -296 -555 -501 -829
-1136 -1466 -2031 -2036 -363 -231 -610 -368 -1466 -814 -1081 -563 -1452
-774 -1915 -1088 -432 -294 -750 -551 -1170 -946 -124 -117 -247 -232 -274
-257 -70 -63 -281 -298 -440 -488 -361 -433 -763 -988 -975 -1346 -61 -103
-71 -126 -71 -167 0 -239 391 -602 805 -747 148 -52 126 -71 296 257 446 858
814 1408 1196 1785 l89 88 65 -37 c480 -272 1044 -443 1684 -511 213 -22 815
-25 1030 -5 1215 114 2312 531 3120 1185 518 419 977 972 1333 1608 381 680
641 1467 761 2304 47 330 52 401 58 885 4 374 2 489 -11 644 -85 971 -323
1806 -762 2676 -130 258 -149 290 -166 289 -7 0 -56 -52 -108 -115z"/>
</g>
</svg>
