<?xml version="1.0" encoding="UTF-8" standalone="no"?>
<svg
   xmlns:dc="http://purl.org/dc/elements/1.1/"
   xmlns:cc="http://creativecommons.org/ns#"
   xmlns:rdf="http://www.w3.org/1999/02/22-rdf-syntax-ns#"
   xmlns:svg="http://www.w3.org/2000/svg"
   xmlns="http://www.w3.org/2000/svg"
   xmlns:sodipodi="http://sodipodi.sourceforge.net/DTD/sodipodi-0.dtd"
   xmlns:inkscape="http://www.inkscape.org/namespaces/inkscape"
   width="33.38052mm"
   height="10.768824mm"
   viewBox="0 0 33.380521 10.768824"
   version="1.1"
   id="svg8"
   inkscape:version="1.0.1 (3bc2e813f5, 2020-09-07)"
   sodipodi:docname="IconUniqo.svg">
  <defs
     id="defs2">
    <clipPath
       id="clipPath18"
       clipPathUnits="userSpaceOnUse">
      <path
         id="path16"
         d="M 0,841.89 H 595.276 V 0 H 0 Z" />
    </clipPath>
    <clipPath
       id="clipPath4212"
       clipPathUnits="userSpaceOnUse">
      <path
         id="path4210"
         d="M -5.00037,846.89 H 600.276 V -5.00034 H -5.00037 Z" />
    </clipPath>
    <clipPath
       id="clipPath4216"
       clipPathUnits="userSpaceOnUse">
      <path
         id="path4214"
         d="M 0,0 H 595.275 V 841.89 H 0 Z" />
    </clipPath>
    <clipPath
       id="clipPath6570"
       clipPathUnits="userSpaceOnUse">
      <path
         id="path6568"
         d="M 314.13,56.732 H 427.22 V 84.52 H 314.13 Z" />
    </clipPath>
    <clipPath
       id="clipPath6714"
       clipPathUnits="userSpaceOnUse">
      <path
         id="path6712"
         d="M 0,841.89 H 595.276 V 0 H 0 Z" />
    </clipPath>
  </defs>
  <sodipodi:namedview
     id="base"
     pagecolor="#ffffff"
     bordercolor="#666666"
     borderopacity="1.0"
     inkscape:pageopacity="0.0"
     inkscape:pageshadow="2"
     inkscape:zoom="6.5750973"
     inkscape:cx="72.908806"
     inkscape:cy="21.279832"
     inkscape:document-units="mm"
     inkscape:current-layer="g6710"
     inkscape:document-rotation="0"
     showgrid="false"
     fit-margin-top="0"
     fit-margin-left="0"
     fit-margin-right="0"
     fit-margin-bottom="0"
     inkscape:window-width="2560"
     inkscape:window-height="1377"
     inkscape:window-x="-8"
     inkscape:window-y="-8"
     inkscape:window-maximized="1" />
  <metadata
     id="metadata5">
    <rdf:RDF>
      <cc:Work
         rdf:about="">
        <dc:format>image/svg+xml</dc:format>
        <dc:type
           rdf:resource="http://purl.org/dc/dcmitype/StillImage" />
        <dc:title></dc:title>
      </cc:Work>
    </rdf:RDF>
  </metadata>
  <g
     inkscape:label="Layer 1"
     inkscape:groupmode="layer"
     id="layer1"
     transform="translate(-19.602653,-66.827396)">
    <g
       id="g4208"
       transform="matrix(0.35277777,0,0,-0.35277777,-31.351356,245.00502)"
       style="display:inline" />
    <g
       clip-path="url(#clipPath6714)"
       id="g6710"
       transform="matrix(0.35277777,0,0,-0.35277777,-43.768105,97.610326)">
      <g
         transform="translate(197.4569,69.3682)"
         id="g6716">
        <path
           id="path6718"
           style="fill:#ed108b;fill-opacity:1;fill-rule:nonzero;stroke:none"
           d="m 0,0 c -2.206,-2.206 -5.784,-2.206 -7.99,0 -2.206,2.207 -2.206,5.784 0,7.99 2.206,2.207 5.784,2.207 7.99,0 C 2.206,5.784 2.206,2.207 0,0 m 5.897,13.821 c -5.426,5.426 -14.224,5.426 -19.65,0 -5.427,-5.427 -5.427,-14.224 0,-19.65 5.426,-5.428 14.224,-5.428 19.65,0 5.427,5.426 5.427,14.223 0,19.65" />
      </g>
      <g
         transform="translate(203.3542,83.1892)"
         id="g6720">
        <path
           id="path6722"
           style="fill:#971162;fill-opacity:1;fill-rule:nonzero;stroke:none"
           d="m 0,0 -5.865,-5.865 c 2.173,-2.209 2.163,-5.76 -0.032,-7.955 -2.195,-2.196 -5.747,-2.206 -7.956,-0.033 l -5.798,-5.797 c 5.427,-5.428 14.225,-5.428 19.651,0 5.427,5.426 5.427,14.223 0,19.65" />
      </g>
      <g
         transform="translate(197.4729,77.3559)"
         id="g6724">
        <path
           id="path6726"
           style="fill:#dc5bb5;fill-opacity:1;fill-rule:nonzero;stroke:none"
           d="m 0,0 -0.007,-0.007 c 2.197,-2.207 2.194,-5.777 -0.009,-7.981 -2.132,-2.131 -5.543,-2.203 -7.761,-0.215 l 12.42,-12.42 7.99,7.99 z" />
      </g>
      <g
         transform="translate(223.4979,67.411)"
         id="g6728">
        <path
           id="path6730"
           style="fill:#050606;fill-opacity:1;fill-rule:nonzero;stroke:none"
           d="m 0,0 c -0.736,0 -1.401,0.106 -1.996,0.316 -0.595,0.211 -1.103,0.528 -1.525,0.95 -0.422,0.422 -0.747,0.943 -0.974,1.566 -0.227,0.621 -0.341,1.344 -0.341,2.166 v 6.539 h 1.98 V 5.079 c 0,-1.06 0.256,-1.866 0.767,-2.418 0.511,-0.551 1.218,-0.827 2.121,-0.827 0.892,0 1.594,0.265 2.106,0.795 0.511,0.53 0.767,1.32 0.767,2.369 v 6.539 H 4.884 V 5.095 C 4.884,4.251 4.768,3.51 4.535,2.872 4.303,2.234 3.976,1.701 3.554,1.274 3.132,0.846 2.621,0.527 2.02,0.316 1.42,0.106 0.746,0 0,0" />
      </g>
      <g
         transform="translate(231.1245,78.9484)"
         id="g6732">
        <path
           id="path6734"
           style="fill:#050606;fill-opacity:1;fill-rule:nonzero;stroke:none"
           d="M 0,0 H 1.846 L 7.919,-7.854 V 0 H 9.898 V -11.359 H 8.23 l -6.25,8.081 v -8.081 H 0 Z" />
      </g>
      <path
         id="path6736"
         style="fill:#050606;fill-opacity:1;fill-rule:nonzero;stroke:none"
         d="m 244.057,78.948 h 1.98 V 67.589 h -1.98 z" />
      <g
         transform="translate(254.5451,69.2285)"
         id="g6738">
        <path
           id="path6740"
           style="fill:#ed108b;fill-opacity:1;fill-rule:nonzero;stroke:none"
           d="m 0,0 c 0.378,0 0.728,0.049 1.052,0.146 0.323,0.097 0.62,0.232 0.89,0.406 L -0.005,2.207 1.277,3.667 3.229,1.882 C 3.615,2.477 3.808,3.186 3.808,4.008 V 4.04 C 3.808,4.592 3.714,5.114 3.525,5.606 3.336,6.098 3.072,6.526 2.733,6.888 2.394,7.251 1.987,7.54 1.513,7.756 1.039,7.973 0.522,8.081 -0.038,8.081 -0.598,8.081 -1.112,7.976 -1.581,7.765 -2.049,7.554 -2.451,7.267 -2.785,6.904 -3.119,6.542 -3.38,6.117 -3.568,5.631 -3.757,5.144 -3.851,4.625 -3.851,4.073 V 4.04 c 0,-0.551 0.094,-1.073 0.283,-1.565 0.189,-0.493 0.453,-0.92 0.793,-1.282 C -2.435,0.83 -2.028,0.541 -1.553,0.325 -1.079,0.108 -0.561,0 0,0 M 3.419,-0.763 C 2.932,-1.109 2.402,-1.374 1.828,-1.558 1.255,-1.742 0.633,-1.834 -0.038,-1.834 c -0.876,0 -1.677,0.154 -2.401,0.463 -0.725,0.308 -1.347,0.727 -1.866,1.257 -0.52,0.53 -0.926,1.15 -1.218,1.858 -0.292,0.709 -0.438,1.463 -0.438,2.264 V 4.04 c 0,0.801 0.146,1.555 0.438,2.264 0.292,0.709 0.703,1.331 1.234,1.866 0.53,0.536 1.157,0.96 1.882,1.274 0.725,0.314 1.525,0.471 2.402,0.471 0.876,0 1.676,-0.155 2.401,-0.463 C 3.121,9.144 3.743,8.725 4.262,8.195 4.782,7.664 5.187,7.045 5.479,6.337 5.771,5.628 5.918,4.873 5.918,4.073 V 4.04 C 5.918,3.391 5.82,2.772 5.625,2.183 5.431,1.593 5.144,1.049 4.765,0.552 L 6.064,-0.552 4.782,-1.98 Z" />
      </g>
      <g
         transform="translate(268.3326,69.2285)"
         id="g6742">
        <path
           id="path6744"
           style="fill:#050606;fill-opacity:1;fill-rule:nonzero;stroke:none"
           d="M 0,0 C 0.56,0 1.075,0.105 1.543,0.316 2.012,0.527 2.413,0.814 2.747,1.176 3.081,1.539 3.342,1.963 3.53,2.45 3.719,2.937 3.813,3.456 3.813,4.008 V 4.04 C 3.813,4.592 3.719,5.114 3.53,5.606 3.342,6.098 3.078,6.526 2.739,6.888 2.399,7.251 1.993,7.54 1.519,7.756 1.045,7.973 0.528,8.081 -0.033,8.081 -0.593,8.081 -1.107,7.976 -1.575,7.765 -2.044,7.554 -2.446,7.267 -2.779,6.904 -3.113,6.542 -3.374,6.117 -3.563,5.631 -3.752,5.144 -3.846,4.625 -3.846,4.073 V 4.04 c 0,-0.551 0.094,-1.073 0.283,-1.565 0.189,-0.493 0.452,-0.92 0.792,-1.282 C -2.432,0.83 -2.025,0.541 -1.551,0.325 -1.077,0.108 -0.56,0 0,0 m -0.033,-1.834 c -0.876,0 -1.676,0.154 -2.401,0.463 -0.725,0.308 -1.347,0.727 -1.866,1.257 -0.519,0.53 -0.925,1.15 -1.217,1.858 -0.292,0.709 -0.438,1.463 -0.438,2.264 V 4.04 c 0,0.801 0.146,1.555 0.438,2.264 0.292,0.709 0.703,1.331 1.233,1.866 0.53,0.536 1.158,0.96 1.882,1.274 C -1.677,9.758 -0.876,9.915 0,9.915 0.876,9.915 1.677,9.76 2.402,9.452 3.126,9.144 3.748,8.725 4.268,8.195 4.787,7.664 5.193,7.045 5.485,6.337 5.777,5.628 5.923,4.873 5.923,4.073 V 4.04 C 5.923,3.24 5.777,2.485 5.485,1.777 5.193,1.068 4.781,0.446 4.252,-0.089 3.721,-0.625 3.094,-1.049 2.369,-1.363 1.644,-1.677 0.844,-1.834 -0.033,-1.834" />
      </g>
    </g>
  </g>
</svg>
